<svg width="53" height="53" viewBox="0 0 53 53" fill="none" xmlns="http://www.w3.org/2000/svg">
<path d="M40.8542 43.0625H32.0208M36.4375 47.4791V38.6458M26.4779 48.1637C22.4587 48.1637 18.4617 47.1479 15.4142 45.1162C10.07 41.5387 10.07 35.7087 15.4142 32.1533C21.4871 28.09 31.4467 28.09 37.5196 32.1533M26.8533 24.0045C26.6325 23.9825 26.3675 23.9825 26.1246 24.0045C23.5899 23.9185 21.1882 22.8492 19.4281 21.0232C17.668 19.1972 16.6878 16.7578 16.695 14.2216C16.6915 12.9349 16.942 11.6601 17.4321 10.4704C17.9223 9.28067 18.6424 8.19937 19.5512 7.28848C20.4601 6.3776 21.5397 5.65504 22.7284 5.16223C23.917 4.66942 25.1912 4.41604 26.4779 4.41663C31.8883 4.41663 36.2829 8.81121 36.2829 14.2216C36.2829 19.5216 32.0871 23.8279 26.8533 24.0045Z" stroke="#D8A963" stroke-width="1.5" stroke-linecap="round" stroke-linejoin="round"/>
</svg>
