<svg width="90" height="89" viewBox="0 0 90 89" fill="none" xmlns="http://www.w3.org/2000/svg">
<path d="M86.25 70.4583C86.25 72.4254 85.4598 74.3118 84.0533 75.7027C82.6468 77.0936 80.7391 77.875 78.75 77.875H11.25C9.26088 77.875 7.35322 77.0936 5.9467 75.7027C4.54018 74.3118 3.75 72.4254 3.75 70.4583V29.6667C3.75 27.6996 4.54018 25.8132 5.9467 24.4223C7.35322 23.0314 9.26088 22.25 11.25 22.25H26.25L33.75 11.125H56.25L63.75 22.25H78.75C80.7391 22.25 82.6468 23.0314 84.0533 24.4223C85.4598 25.8132 86.25 27.6996 86.25 29.6667V70.4583Z" stroke="#D8A963" stroke-width="2" stroke-linecap="round" stroke-linejoin="round"/>
<path d="M45 63.0417C53.2843 63.0417 60 56.4006 60 48.2083C60 40.0161 53.2843 33.375 45 33.375C36.7157 33.375 30 40.0161 30 48.2083C30 56.4006 36.7157 63.0417 45 63.0417Z" stroke="#D8A963" stroke-width="2" stroke-linecap="round" stroke-linejoin="round"/>
</svg>
