<svg width="20" height="22" viewBox="0 0 20 22" fill="none" xmlns="http://www.w3.org/2000/svg">
<path d="M9.99988 12.4299C10.4096 12.4299 10.8153 12.3492 11.1939 12.1924C11.5724 12.0357 11.9163 11.8058 12.2061 11.5161C12.4958 11.2264 12.7256 10.8824 12.8824 10.5039C13.0392 10.1254 13.1199 9.71967 13.1199 9.30994C13.1199 8.90022 13.0392 8.49451 12.8824 8.11597C12.7256 7.73743 12.4958 7.39349 12.2061 7.10377C11.9163 6.81405 11.5724 6.58423 11.1939 6.42744C10.8153 6.27064 10.4096 6.18994 9.99988 6.18994C9.17241 6.18994 8.37882 6.51865 7.79371 7.10377C7.2086 7.68888 6.87988 8.48247 6.87988 9.30994C6.87988 10.1374 7.2086 10.931 7.79371 11.5161C8.37882 12.1012 9.17241 12.4299 9.99988 12.4299Z" stroke="#D8A963" stroke-width="1.5"/>
<path d="M1.6202 7.49C3.5902 -1.17 16.4202 -1.16 18.3802 7.5C19.5302 12.58 16.3702 16.88 13.6002 19.54C12.6323 20.4735 11.34 20.9952 9.9952 20.9952C8.65044 20.9952 7.35812 20.4735 6.3902 19.54C3.6302 16.88 0.470197 12.57 1.6202 7.49Z" stroke="#D8A963" stroke-width="1.5"/>
</svg>
