<svg width="43" height="43" viewBox="0 0 43 43" fill="none" xmlns="http://www.w3.org/2000/svg">
<path d="M30.4583 3.58301H12.5416C7.5941 3.58301 3.58331 7.59379 3.58331 12.5413V30.458C3.58331 35.4056 7.5941 39.4163 12.5416 39.4163H30.4583C35.4059 39.4163 39.4166 35.4056 39.4166 30.458V12.5413C39.4166 7.59379 35.4059 3.58301 30.4583 3.58301Z" stroke="white" stroke-width="2" stroke-linecap="round" stroke-linejoin="round"/>
<path d="M28.6667 20.3713C28.8878 21.8624 28.6331 23.3853 27.9388 24.7233C27.2445 26.0613 26.146 27.1463 24.7996 27.8241C23.4531 28.5018 21.9272 28.7377 20.4389 28.4982C18.9507 28.2587 17.5758 27.556 16.5099 26.4901C15.444 25.4242 14.7413 24.0494 14.5019 22.5611C14.2624 21.0728 14.4983 19.5469 15.176 18.2005C15.8537 16.854 16.9387 15.7555 18.2767 15.0612C19.6148 14.367 21.1376 14.1123 22.6287 14.3334C24.1497 14.5589 25.5578 15.2677 26.6451 16.3549C27.7324 17.4422 28.4411 18.8503 28.6667 20.3713Z" stroke="white" stroke-width="2" stroke-linecap="round" stroke-linejoin="round"/>
<path d="M31.3542 11.6455H31.3713" stroke="white" stroke-width="2" stroke-linecap="round" stroke-linejoin="round"/>
</svg>
