<svg width="44" height="44" viewBox="0 0 44 44" fill="none" xmlns="http://www.w3.org/2000/svg">
<path d="M19.25 14.6667H24.75M12.3933 40.3334H31.6067C36.6667 40.3334 38.6833 37.2351 38.9217 33.4584L39.875 18.3151C39.9344 17.3761 39.8006 16.4349 39.4819 15.5497C39.1632 14.6645 38.6663 13.854 38.0219 13.1685C37.3776 12.4829 36.5995 11.9367 35.7357 11.5638C34.8719 11.1908 33.9409 10.999 33 11.0001C31.8817 11.0001 30.855 10.3584 30.3417 9.36841L29.0217 6.71008C28.1783 5.04175 25.9783 3.66675 24.1083 3.66675H19.91C18.0217 3.66675 15.8217 5.04175 14.9783 6.71008L13.6583 9.36841C13.145 10.3584 12.1183 11.0001 11 11.0001C7.02168 11.0001 3.86835 14.3551 4.12501 18.3151L5.07835 33.4584C5.29835 37.2351 7.33335 40.3334 12.3933 40.3334Z" stroke="#D8A963" stroke-width="1.5" stroke-linecap="round" stroke-linejoin="round"/>
<path d="M22 32.9999C25.2817 32.9999 27.9583 30.3233 27.9583 27.0416C27.9583 23.7599 25.2817 21.0833 22 21.0833C18.7183 21.0833 16.0417 23.7599 16.0417 27.0416C16.0417 30.3233 18.7183 32.9999 22 32.9999Z" stroke="#D8A963" stroke-width="1.5" stroke-linecap="round" stroke-linejoin="round"/>
</svg>
