<svg width="54" height="54" viewBox="0 0 54 54" fill="none" xmlns="http://www.w3.org/2000/svg">
<path d="M20.9475 33.075L24.3225 36.45L33.3225 27.45" stroke="#D8A963" stroke-width="1.5" stroke-linecap="round" stroke-linejoin="round"/>
<path d="M22.5 13.5H31.5C36 13.5 36 11.25 36 9C36 4.5 33.75 4.5 31.5 4.5H22.5C20.25 4.5 18 4.5 18 9C18 13.5 20.25 13.5 22.5 13.5Z" stroke="#D8A963" stroke-width="1.5" stroke-miterlimit="10" stroke-linecap="round" stroke-linejoin="round"/>
<path d="M36 9.04492C43.4925 9.44992 47.25 12.2174 47.25 22.4999V35.9999C47.25 44.9999 45 49.4999 33.75 49.4999H20.25C9 49.4999 6.75 44.9999 6.75 35.9999V22.4999C6.75 12.2399 10.5075 9.44992 18 9.04492" stroke="#D8A963" stroke-width="1.5" stroke-miterlimit="10" stroke-linecap="round" stroke-linejoin="round"/>
</svg>
