<svg width="50" height="48" viewBox="0 0 50 48" fill="none" xmlns="http://www.w3.org/2000/svg">
<path d="M34.6228 48H15.3773C7.38647 48 0.886902 41.5309 0.886902 33.5776V14.4224C0.886902 6.46908 7.38647 0 15.3773 0H34.6228C42.6136 0 49.1131 6.46908 49.1131 14.4224V33.5776C49.1131 41.5309 42.6136 48 34.6228 48ZM15.3773 4.50875C9.89063 4.50875 5.41691 8.96149 5.41691 14.4224V33.5776C5.41691 39.0385 9.89063 43.4912 15.3773 43.4912H34.6228C40.1094 43.4912 44.5831 39.0385 44.5831 33.5776V14.4224C44.5831 8.96149 40.1094 4.50875 34.6228 4.50875H15.3773Z" fill="white"/>
<path d="M37.9428 16.8308C37.0425 16.8308 36.2265 16.6628 35.4668 16.3267C34.3132 15.8507 33.3284 15.0385 32.6531 14.0303C31.9497 13.0222 31.5558 11.79 31.5558 10.4738H26.9133V28.9288C26.9133 29.4609 26.8007 29.965 26.6038 30.4131C26.3224 31.0852 25.8159 31.7013 25.1969 32.0934C24.5779 32.5134 23.8464 32.7375 23.0585 32.7375C22.524 32.7375 22.0175 32.6254 21.5673 32.4294C20.892 32.1494 20.273 31.6453 19.8791 31.0292C19.4571 30.4131 19.232 29.685 19.232 28.9008C19.232 28.3687 19.3445 27.8647 19.5415 27.4166C19.8228 26.7445 20.3293 26.1284 20.9483 25.7363C21.5673 25.3162 22.2989 25.0922 23.0867 25.0922C23.4806 25.0922 23.8464 25.1482 24.2122 25.2602V20.5274C23.8464 20.4714 23.4806 20.4434 23.0867 20.4434C20.7513 20.4434 18.613 21.3956 17.0654 22.9358C15.5179 24.4481 14.5613 26.6044 14.5613 28.9288C14.5613 31.2532 15.5179 33.3816 17.0654 34.9218C18.5848 36.4621 20.7513 37.4142 23.0867 37.4142C25.422 37.4142 27.5604 36.4621 29.1079 34.9218C30.6555 33.4096 31.6121 31.2532 31.6121 28.9288V19.4633C33.4128 20.7515 35.6356 21.5076 37.9991 21.5076V16.8868L37.9428 16.8308Z" fill="white"/>
</svg>
