<svg width="49" height="48" viewBox="0 0 49 48" fill="none" xmlns="http://www.w3.org/2000/svg">
<path d="M36.8872 8.56943C35.3115 8.56943 34.0735 9.82964 34.0735 11.3979C34.0735 12.9662 35.3396 14.2264 36.8872 14.2264C38.4347 14.2264 39.729 12.9662 39.729 11.3979C39.729 9.82964 38.4628 8.56943 36.8872 8.56943Z" fill="white"/>
<path d="M24.3101 12.182C17.7542 12.182 12.4364 17.4749 12.4364 24C12.4364 30.5251 17.7542 35.818 24.3101 35.818C30.8659 35.818 36.1837 30.5251 36.1837 24C36.1837 17.4749 30.8659 12.182 24.3101 12.182ZM24.3101 31.5893C20.1177 31.5893 16.7132 28.2007 16.7132 24.028C16.7132 19.8553 20.1177 16.4668 24.3101 16.4668C28.5024 16.4668 31.907 19.8553 31.907 24.028C31.907 28.2007 28.5024 31.5893 24.3101 31.5893Z" fill="white"/>
<path d="M33.7359 48H14.4904C6.49957 48 0 41.5309 0 33.5776V14.4224C0 6.46908 6.49957 0 14.4904 0H33.7359C41.7267 0 48.2262 6.46908 48.2262 14.4224V33.5776C48.2262 41.5309 41.7267 48 33.7359 48ZM14.4904 4.50875C9.00373 4.50875 4.53 8.96149 4.53 14.4224V33.5776C4.53 39.0385 9.00373 43.4912 14.4904 43.4912H33.7359C39.2225 43.4912 43.6962 39.0385 43.6962 33.5776V14.4224C43.6962 8.96149 39.2225 4.50875 33.7359 4.50875H14.4904Z" fill="white"/>
</svg>
