<svg width="49" height="48" viewBox="0 0 49 48" fill="none" xmlns="http://www.w3.org/2000/svg">
<path d="M34.5096 48H15.2641C7.27331 48 0.773743 41.5309 0.773743 33.5776V14.4224C0.773743 6.46908 7.27331 0 15.2641 0H34.5096C42.5004 0 49 6.46908 49 14.4224V33.5776C49 41.5309 42.5004 48 34.5096 48ZM15.2641 4.50875C9.77747 4.50875 5.30375 8.96149 5.30375 14.4224V33.5776C5.30375 39.0385 9.77747 43.4912 15.2641 43.4912H34.5096C39.9963 43.4912 44.47 39.0385 44.47 33.5776V14.4224C44.47 8.96149 39.9963 4.50875 34.5096 4.50875H15.2641Z" fill="white"/>
<path d="M37.8579 16.5508C37.0982 16.8868 36.2541 17.1109 35.41 17.2509C35.8039 17.1949 36.3948 16.4667 36.6199 16.1867C36.9856 15.7386 37.267 15.2625 37.4358 14.7025C37.4358 14.6744 37.464 14.6184 37.4358 14.5624C37.3796 14.5624 37.3514 14.5624 37.2951 14.5624C36.3666 15.0665 35.41 15.4026 34.3971 15.6546C34.3127 15.6546 34.2564 15.6546 34.2001 15.5986C34.1157 15.5146 34.0313 15.4026 33.9469 15.3466C33.5248 14.9825 33.0465 14.7025 32.54 14.4784C31.8648 14.1984 31.1051 14.0863 30.3735 14.1424C29.6701 14.1984 28.9667 14.3944 28.3195 14.7305C27.6724 15.0665 27.1097 15.5146 26.6595 16.0747C26.1812 16.6348 25.8435 17.3349 25.6747 18.035C25.5059 18.7351 25.5059 19.4072 25.6184 20.1074C25.6184 20.2194 25.6184 20.2474 25.5059 20.2194C21.5105 19.6313 18.2185 18.203 15.5455 15.1785C15.4329 15.0385 15.3767 15.0385 15.2641 15.1785C14.0824 16.9148 14.6733 19.7433 16.1364 21.1155C16.3333 21.3116 16.5303 21.4796 16.7554 21.6476C16.671 21.6476 15.7143 21.5636 14.8421 21.1155C14.7295 21.0315 14.6733 21.0875 14.6451 21.2275C14.6451 21.4236 14.6451 21.5916 14.6733 21.7876C14.8983 23.5519 16.1364 25.2042 17.8246 25.8483C18.0215 25.9323 18.2466 26.0163 18.4717 26.0443C18.0778 26.1284 17.6839 26.1844 16.5865 26.1004C16.4459 26.1004 16.3896 26.1564 16.4459 26.2684C17.2618 28.5088 19.0626 29.1809 20.4131 29.5729C20.582 29.6009 20.7789 29.6009 20.9477 29.6569C20.9477 29.6569 20.9477 29.6569 20.9196 29.685C20.4694 30.3571 18.9219 30.8611 18.2185 31.1132C16.9242 31.5613 15.4892 31.7853 14.1105 31.6453C13.8854 31.6173 13.8292 31.6173 13.7729 31.6453C13.7166 31.6733 13.7729 31.7293 13.8292 31.7853C14.1105 31.9813 14.3919 32.1214 14.6733 32.2894C15.5455 32.7655 16.474 33.1295 17.4306 33.3816C22.3546 34.7258 27.9256 33.7456 31.6397 30.077C34.5377 27.1925 35.5788 23.2159 35.5788 19.2672C35.5788 19.0992 35.7757 19.0152 35.8602 18.9312C36.6198 18.3711 37.2389 17.699 37.8016 16.9428C37.9423 16.7748 37.9423 16.6348 37.9423 16.5508C37.9423 16.5508 37.9423 16.4948 37.8297 16.5508H37.8579Z" fill="white"/>
</svg>
