<svg width="54" height="54" viewBox="0 0 54 54" fill="none" xmlns="http://www.w3.org/2000/svg">
<path d="M24.192 37.9351V42.5026C24.192 46.3726 20.592 49.5001 16.1595 49.5001C11.727 49.5001 8.10449 46.3726 8.10449 42.5026V37.9351C8.10449 41.8051 11.7045 44.5501 16.1595 44.5501C20.592 44.5501 24.192 41.7826 24.192 37.9351Z" stroke="#D8A963" stroke-width="1.5" stroke-linecap="round" stroke-linejoin="round"/>
<path d="M24.1875 31.7475C24.1875 32.8725 23.8725 33.9075 23.3325 34.8075C22.005 36.99 19.2825 38.3625 16.1325 38.3625C12.9825 38.3625 10.26 36.9675 8.93251 34.8075C8.39251 33.9075 8.07751 32.8725 8.07751 31.7475C8.07751 29.8125 8.97752 28.08 10.4175 26.82C11.88 25.5375 13.8825 24.7725 16.11 24.7725C18.3375 24.7725 20.34 25.56 21.8025 26.82C23.2875 28.0575 24.1875 29.8125 24.1875 31.7475Z" stroke="#D8A963" stroke-width="1.5" stroke-linecap="round" stroke-linejoin="round"/>
<path d="M24.192 31.7477V37.9352C24.192 41.8052 20.592 44.5502 16.1595 44.5502C11.727 44.5502 8.10449 41.7827 8.10449 37.9352V31.7477C8.10449 27.8777 11.7045 24.7502 16.1595 24.7502C18.387 24.7502 20.3895 25.5377 21.852 26.7977C23.292 28.0577 24.192 29.8127 24.192 31.7477ZM49.5 24.6827V29.3177C49.5 30.5552 48.51 31.5677 47.25 31.6127H42.84C40.41 31.6127 38.1825 29.8352 37.98 27.4052C37.845 25.9877 38.385 24.6602 39.33 23.7377C40.1625 22.8827 41.31 22.3877 42.57 22.3877H47.25C48.51 22.4327 49.5 23.4452 49.5 24.6827Z" stroke="#D8A963" stroke-width="1.5" stroke-linecap="round" stroke-linejoin="round"/>
<path d="M4.5 23.625V19.125C4.5 13.005 8.19 8.73 13.9275 8.01C14.5125 7.92 15.12 7.875 15.75 7.875H36C36.585 7.875 37.1475 7.8975 37.6875 7.9875C43.4925 8.6625 47.25 12.96 47.25 19.125V22.3875H42.57C41.31 22.3875 40.1625 22.8825 39.33 23.7375C38.385 24.66 37.845 25.9875 37.98 27.405C38.1825 29.835 40.41 31.6125 42.84 31.6125H47.25V34.875C47.25 41.625 42.75 46.125 36 46.125H30.375" stroke="#D8A963" stroke-width="1.5" stroke-linecap="round" stroke-linejoin="round"/>
</svg>
